<?xml version="1.0" standalone="no"?>
<!DOCTYPE svg PUBLIC "-//W3C//DTD SVG 20010904//EN"
 "http://www.w3.org/TR/2001/REC-SVG-20010904/DTD/svg10.dtd">
<svg version="1.0" xmlns="http://www.w3.org/2000/svg"
 width="800.000000pt" height="800.000000pt" viewBox="0 0 800.000000 800.000000"
 preserveAspectRatio="xMidYMid meet">
<metadata>
Created by potrace 1.11, written by Peter Selinger 2001-2013
</metadata>
<g transform="translate(0.000000,800.000000) scale(0.100000,-0.100000)"
fill="#000000" stroke="none">
<path d="M1140 7105 c-30 -7 -62 -15 -70 -18 -8 -3 -27 -8 -42 -11 -18 -4 -28
-14 -30 -28 -2 -16 -15 -27 -43 -38 -38 -14 -95 -59 -95 -74 0 -4 -15 -23 -33
-41 -38 -39 -45 -83 -21 -125 15 -24 13 -30 -19 -100 -19 -41 -53 -96 -75
-121 -36 -40 -42 -53 -41 -90 0 -77 -5 -86 -88 -168 -113 -110 -123 -167 -40
-215 50 -30 81 -77 73 -110 -3 -14 0 -28 8 -35 8 -7 11 -22 8 -38 -4 -23 -3
-25 20 -20 14 4 28 4 31 0 4 -3 18 -8 32 -9 51 -5 80 -38 103 -118 12 -41 22
-85 22 -99 0 -34 -20 -88 -42 -111 -24 -26 -23 -61 6 -122 22 -47 23 -53 9
-85 -22 -51 -11 -108 27 -141 32 -30 53 -34 95 -18 21 8 29 6 46 -11 17 -17
28 -19 77 -14 94 11 153 6 189 -16 32 -20 123 -128 123 -146 0 -5 -12 -20 -26
-34 -39 -35 -64 -100 -71 -180 -3 -39 -11 -72 -17 -74 -6 -2 -103 -6 -216 -9
-113 -3 -267 -9 -342 -12 -157 -8 -158 -9 -108 -84 16 -25 30 -48 30 -52 0 -5
-30 -8 -67 -8 -74 0 -113 -7 -113 -21 0 -5 6 -7 12 -5 7 1 10 1 5 -1 -4 -3 -5
-9 -2 -13 3 -5 -3 -14 -14 -19 -15 -9 -20 -7 -24 11 -4 16 -3 18 6 9 18 -18
28 -13 15 8 -7 11 -15 18 -19 15 -4 -2 -9 -1 -11 3 -1 5 -25 5 -53 2 l-50 -6
43 -1 c28 -1 41 -6 37 -13 -4 -6 -14 -8 -24 -5 -14 6 -15 5 0 -6 9 -7 19 -20
22 -28 4 -9 5 -6 3 8 -7 39 14 24 36 -25 18 -40 22 -45 28 -28 5 14 2 22 -9
26 -13 5 -12 8 7 18 13 7 22 8 22 2 0 -5 9 -13 21 -16 14 -5 17 -10 10 -19 -7
-8 -5 -12 7 -12 9 -1 26 -5 36 -9 15 -7 17 -5 11 6 -4 8 3 3 16 -11 13 -13 23
-29 21 -34 -2 -5 9 -21 24 -37 16 -16 23 -32 19 -40 -5 -8 -4 -10 3 -5 17 10
15 17 -14 51 -25 29 -25 30 -5 33 11 2 37 -8 57 -22 21 -14 42 -22 47 -19 6 4
7 1 2 -7 -6 -10 -2 -12 16 -7 22 6 22 4 -6 -18 -23 -19 -27 -27 -17 -37 9 -9
12 -9 12 3 0 8 3 10 8 4 12 -18 63 -36 83 -30 22 7 76 -30 59 -40 -5 -3 -10
-1 -10 4 0 6 -9 11 -21 11 -11 0 -17 5 -14 10 3 6 1 10 -5 10 -7 0 -10 -6 -7
-14 3 -7 -8 -30 -24 -50 -22 -25 -25 -34 -13 -29 16 6 17 5 4 -9 -8 -9 -19
-15 -25 -15 -5 1 -10 -5 -10 -13 0 -8 -6 -21 -13 -28 -27 -30 8 -131 38 -111
12 7 11 10 -7 15 -24 7 -37 30 -23 39 7 4 6 13 0 26 -14 25 2 25 18 -1 7 -12
18 -18 25 -14 9 5 9 3 0 -7 -18 -19 -16 -36 5 -41 10 -3 19 -13 19 -22 0 -10
-6 -15 -14 -12 -8 3 -12 2 -9 -3 3 -5 -1 -11 -9 -15 -8 -3 -15 0 -15 6 0 6 -3
9 -6 5 -14 -14 8 -26 31 -17 21 8 25 7 25 -10 0 -10 5 -22 10 -25 6 -3 10 -12
10 -18 0 -7 -5 -4 -11 6 -5 9 -14 17 -19 17 -17 0 -11 -28 8 -40 15 -10 14
-10 -5 -5 -12 3 -32 1 -44 -5 -18 -10 -20 -9 -17 6 1 9 9 19 17 22 9 3 11 0 6
-8 -6 -9 -4 -11 4 -6 9 6 8 13 -6 29 -10 12 -20 24 -22 27 -2 3 -2 -4 1 -16 7
-29 -16 -57 -40 -50 -11 4 -23 3 -25 -1 -3 -4 6 -9 19 -9 36 -3 52 -11 64 -35
10 -17 9 -20 -1 -14 -9 6 -11 2 -6 -14 3 -13 3 -20 0 -17 -4 3 -12 1 -19 -5
-10 -9 -15 -7 -20 5 -8 22 -21 20 -29 -3 -9 -28 -48 -16 -40 13 5 17 4 18 -4
6 -15 -21 -14 -28 10 -40 15 -9 24 -8 36 2 15 12 15 11 4 -10 -7 -13 -13 -36
-13 -53 -1 -23 -4 -27 -14 -18 -8 6 -11 15 -8 20 3 5 0 9 -5 9 -14 0 -14 -17
0 -25 6 -5 4 -16 -7 -33 l-17 -25 34 20 c23 13 33 26 32 40 -1 12 4 24 12 27
12 4 14 0 9 -22 -4 -15 -12 -30 -17 -34 -7 -4 -6 -13 3 -25 12 -15 12 -16 0
-5 -18 16 -30 16 -26 0 1 -7 1 -10 -1 -5 -8 13 -25 7 -20 -7 3 -7 0 -19 -6
-25 -6 -6 -7 -14 -3 -18 4 -4 10 -3 14 2 4 6 14 11 22 13 10 1 9 -2 -4 -13
-11 -8 -17 -18 -13 -21 4 -4 13 -2 20 4 10 9 17 5 30 -17 9 -15 13 -32 9 -36
-4 -5 0 -6 9 -3 9 4 22 2 30 -4 11 -8 11 -9 -3 -4 -10 3 -20 1 -23 -4 -4 -6 1
-10 10 -10 11 0 15 -5 11 -15 -5 -15 13 -40 36 -48 10 -3 9 -9 -5 -24 -9 -11
-14 -22 -11 -26 4 -3 -5 -9 -20 -13 -14 -3 -26 -11 -26 -16 0 -6 7 -8 15 -4 8
3 15 1 15 -3 0 -5 -12 -14 -28 -20 l-27 -11 26 3 c14 2 26 -1 26 -8 0 -6 -12
-9 -29 -7 -16 2 -28 0 -28 -6 0 -7 29 -13 68 -15 37 -2 -68 -4 -232 -5 -164 0
-302 -5 -306 -9 -31 -33 -84 -163 -66 -163 2 0 250 16 552 35 302 19 566 35
587 35 l37 0 0 88 c0 83 2 91 31 130 19 26 39 42 52 42 12 1 48 3 79 7 32 3
87 2 123 -2 59 -6 69 -10 103 -46 l37 -39 97 -4 c53 -2 100 -6 106 -10 5 -3
47 -10 93 -15 46 -6 138 -17 204 -26 156 -19 185 -18 63 4 -54 10 -99 19 -101
22 -1 2 -9 13 -17 23 -14 18 -14 19 7 8 35 -19 42 -15 33 19 -5 18 -7 36 -4
41 4 5 -3 4 -14 -3 -17 -10 -23 -10 -37 4 -15 16 -13 17 26 14 36 -2 43 -5 44
-25 3 -36 20 -47 46 -28 13 9 19 16 13 16 -5 0 -16 -6 -22 -12 -10 -10 -15
-10 -22 2 -14 22 -12 34 4 21 10 -8 16 -9 21 -1 3 5 0 10 -8 10 -22 0 -30 30
-9 31 9 1 22 0 27 -1 11 -3 22 -2 335 5 189 4 229 2 330 -16 101 -19 148 -21
390 -20 341 3 346 3 730 -4 292 -5 321 -4 394 15 46 12 112 20 160 20 104 0
246 16 260 30 13 13 196 13 295 0 58 -8 77 -7 83 3 6 9 11 9 28 -1 14 -8 20
-9 20 -1 0 6 6 9 14 6 7 -3 19 0 25 6 8 8 11 8 11 -2 0 -7 5 -9 12 -5 8 5 9 1
5 -12 -6 -14 -2 -13 14 6 11 14 18 20 15 13 -4 -6 -2 -14 3 -17 5 -3 11 1 15
9 3 8 18 15 33 15 21 0 24 -3 13 -9 -8 -6 -18 -7 -22 -5 -4 3 -8 -3 -8 -12 0
-13 3 -15 11 -7 6 6 18 9 25 6 8 -3 14 -1 14 4 0 5 7 10 15 10 8 0 12 -4 9 -9
-3 -4 4 -8 15 -8 10 0 21 6 24 13 3 9 7 9 19 0 8 -7 18 -10 22 -6 4 4 4 -1 1
-12 -7 -20 -6 -20 10 0 17 20 17 20 10 -5 -4 -14 -12 -30 -17 -37 -11 -14 -2
-33 15 -33 7 0 6 4 -3 11 -11 8 -12 12 -2 16 6 2 12 11 12 20 0 11 7 13 31 8
25 -6 30 -4 24 6 -4 8 3 3 15 -11 13 -16 20 -19 19 -10 -3 27 1 40 11 40 5 0
8 -16 5 -35 -4 -32 -3 -34 11 -20 9 8 19 13 23 11 4 -3 8 1 8 9 0 11 -4 12
-13 4 -9 -8 -11 -6 -8 8 4 14 15 18 45 18 21 0 39 -3 39 -7 0 -7 -14 -12 -31
-10 -3 1 -6 -6 -6 -15 0 -12 8 -14 33 -10 l34 6 -23 -23 c-12 -12 -30 -25 -39
-29 -23 -8 -12 -38 10 -30 9 4 14 3 10 -1 -4 -4 -19 -9 -35 -11 -15 -2 -48 -9
-73 -15 -25 -6 -55 -9 -67 -7 -12 2 -20 1 -18 -3 3 -4 -12 -8 -33 -8 -20 0
-59 -6 -87 -13 -28 -6 -140 -13 -252 -15 -179 -2 -205 -1 -237 16 -35 17 -37
17 -59 -1 -20 -15 -44 -18 -137 -20 -102 -1 -115 0 -129 19 -9 11 -29 27 -44
37 -28 18 -28 18 -60 -12 -38 -36 -68 -45 -85 -26 -12 12 -8 17 10 15 3 -1 12
6 20 16 12 15 11 16 -4 4 -11 -9 -18 -10 -23 -2 -3 5 -12 10 -18 10 -8 0 -8
-3 1 -9 10 -6 10 -10 -2 -20 -10 -8 -45 -11 -115 -8 -55 2 -98 1 -96 -4 3 -4
-14 -5 -37 -2 -32 5 -39 3 -33 -7 6 -10 3 -11 -16 -5 -13 4 -58 10 -99 11
l-75 3 59 -20 c64 -22 126 -61 165 -103 19 -20 27 -23 34 -14 6 9 7 8 3 -5 -3
-9 3 -31 13 -48 11 -18 21 -25 23 -18 2 7 11 10 21 6 10 -4 14 -12 11 -22 -4
-8 -1 -21 4 -28 6 -7 8 -24 5 -37 -6 -23 -7 -23 -19 10 -12 35 -13 34 -7 -15
3 -27 10 -52 14 -55 10 -7 5 -46 -10 -84 -6 -16 -9 -31 -6 -34 3 -3 5 0 5 7 0
8 5 9 19 1 37 -19 82 10 95 62 4 19 15 28 38 34 18 4 36 7 40 6 13 -3 19 39 8
53 -14 16 -13 16 55 34 49 13 58 14 51 2 -3 -4 40 11 97 34 395 164 389 162
502 180 61 9 146 23 190 30 77 13 240 36 375 51 36 4 67 8 70 9 3 1 41 5 85
10 44 4 87 9 95 10 8 2 49 6 90 10 71 6 77 9 110 46 35 40 35 40 126 46 50 3
116 3 147 -1 53 -7 59 -11 87 -51 27 -40 30 -51 30 -128 l0 -83 208 -12 c114
-7 272 -17 352 -22 286 -19 602 -40 611 -40 16 0 10 24 -26 98 l-35 73 -57 -1
c-134 -4 -485 3 -453 9 19 3 36 12 38 19 1 8 -2 11 -7 8 -9 -6 -26 22 -23 36
1 4 -9 15 -23 24 -14 9 -22 20 -19 25 3 5 -2 9 -10 9 -9 0 -16 5 -16 10 0 6
-7 10 -16 10 -8 0 -13 4 -10 8 3 5 -9 16 -27 26 -18 9 -43 23 -57 31 l-25 15
23 6 c21 6 26 15 23 43 -2 8 2 10 10 5 8 -5 10 -3 4 5 -5 9 -10 10 -18 2 -22
-22 -30 -10 -8 13 12 13 24 32 26 42 2 11 4 20 5 22 2 1 3 7 4 12 0 6 5 10 10
9 5 0 12 5 17 12 6 10 11 10 26 -2 16 -12 17 -12 6 2 -10 12 -9 18 7 32 11 9
20 22 20 29 -1 7 -12 0 -25 -17 -13 -16 -28 -25 -32 -21 -4 5 -3 11 3 13 7 2
10 13 7 23 -3 12 0 20 6 20 7 0 9 -5 5 -12 -4 -7 -3 -8 4 -4 7 4 12 14 12 23
0 13 3 13 15 3 9 -7 15 -8 15 -2 0 15 -26 22 -39 9 -8 -8 -15 -6 -26 9 -18 24
-19 35 -1 28 7 -3 21 7 31 23 15 23 15 26 2 15 -9 -8 -22 -10 -29 -6 -10 6 -9
3 1 -9 15 -19 1 -23 -17 -5 -8 8 -12 8 -12 1 0 -6 -7 -13 -15 -16 -12 -5 -12
-2 -3 18 6 14 16 25 21 25 6 0 7 3 4 7 -4 3 -16 -2 -28 -13 -15 -14 -20 -15
-17 -4 2 8 9 20 17 26 12 9 11 12 -3 17 -9 4 -16 11 -16 16 0 6 7 8 15 5 12
-5 14 -2 8 12 -6 16 -4 17 9 6 13 -10 17 -10 22 4 9 23 7 34 -4 34 -5 0 -6 -8
-3 -17 5 -12 2 -15 -9 -10 -9 3 -19 3 -22 -1 -4 -3 -14 -7 -24 -8 -14 -2 -14
0 3 12 19 15 19 15 -9 8 -22 -5 -28 -4 -24 7 3 8 14 12 24 11 16 -3 16 -1 -5
17 -13 12 -19 21 -13 21 7 0 12 7 12 15 0 9 6 12 15 9 14 -6 13 -8 -2 -20 -15
-12 -16 -13 -1 -8 12 4 18 -1 21 -18 2 -13 3 0 2 27 -1 40 -5 50 -18 49 -9 -1
-14 2 -11 8 3 5 13 6 23 3 12 -3 21 4 31 28 7 17 16 36 18 41 3 5 -1 5 -8 1
-9 -6 -10 -1 -5 16 7 20 6 22 -7 12 -8 -7 -18 -10 -21 -6 -4 3 1 12 11 19 16
12 16 14 -4 33 -12 11 -25 17 -29 13 -4 -4 -2 3 4 16 14 26 26 28 35 7 3 -8
11 -15 17 -15 8 0 8 5 -2 16 -10 13 -10 17 2 25 10 6 11 9 1 9 -7 0 -11 4 -7
9 3 5 0 13 -6 17 -18 11 11 24 57 24 26 0 44 5 47 14 3 7 18 14 33 14 15 0 33
7 40 16 6 10 29 22 50 28 22 5 46 16 55 24 9 8 20 14 25 12 20 -6 56 24 51 43
-4 16 -2 17 14 8 10 -5 19 -6 19 -1 0 8 23 8 82 -1 15 -2 25 0 22 5 -3 5 3 17
15 27 11 10 17 21 13 25 -4 5 0 7 8 6 8 -1 29 -1 45 0 20 2 11 5 -25 9 -51 6
-58 4 -94 -26 -22 -18 -43 -33 -47 -33 -14 0 -31 31 -26 49 4 18 -1 19 -60 19
-35 0 -66 2 -69 5 -3 3 8 29 25 59 17 30 31 59 31 65 0 7 -67 14 -187 19 -104
4 -195 8 -203 9 -8 1 -51 3 -95 4 -99 4 -66 17 49 20 44 1 84 5 89 8 13 8 2
79 -18 109 -9 14 -45 44 -81 66 -35 22 -62 44 -59 48 3 5 19 11 36 15 36 8
134 53 409 187 235 114 296 151 306 181 3 12 17 45 30 73 19 40 24 65 22 113
-2 49 -5 58 -15 45 -13 -18 -25 -4 -13 16 5 8 36 16 82 20 l73 7 -59 2 c-56 1
-58 2 -52 24 4 12 8 38 10 57 2 19 2 27 -1 18 -2 -10 -11 -18 -19 -18 -8 0
-14 -8 -13 -17 0 -11 3 -13 6 -5 2 6 9 10 14 6 5 -3 0 -18 -11 -33 -17 -24
-25 -28 -59 -25 -40 3 -40 3 -29 -21 6 -14 15 -25 20 -25 11 0 10 14 -1 25 -6
6 -1 11 15 11 13 1 24 -2 24 -7 0 -5 -4 -9 -9 -9 -16 0 -6 -62 12 -75 13 -9
15 -15 6 -20 -6 -4 -15 -2 -19 4 -9 16 -34 -13 -27 -31 4 -8 6 -7 6 5 1 9 6
17 12 17 6 0 9 -7 5 -15 -3 -8 -1 -15 3 -15 5 0 11 5 13 12 3 8 6 7 10 -3 4
-11 -3 -16 -28 -17 -19 -2 -34 2 -34 8 0 6 -5 8 -10 5 -6 -4 -8 -11 -5 -16 4
-5 1 -9 -4 -9 -17 0 -13 9 14 42 28 34 32 60 10 78 -12 10 -18 10 -32 -1 -11
-10 -14 -10 -9 -1 4 6 2 12 -3 12 -6 0 -11 -8 -11 -18 0 -24 -39 -59 -70 -64
-18 -2 -24 -9 -23 -24 1 -14 -9 -26 -32 -38 -20 -11 -51 -44 -74 -81 -41 -62
-41 -63 -110 -78 -134 -31 -237 -47 -331 -52 -109 -6 -140 -9 -191 -20 -23 -4
-39 -3 -43 4 -4 5 -13 8 -21 4 -9 -3 -15 1 -15 11 0 9 -5 16 -11 16 -6 0 -9 6
-6 14 5 13 -21 46 -37 46 -4 0 -19 9 -33 20 -16 12 -34 18 -45 14 -14 -4 -21
0 -25 15 -3 14 -13 21 -29 21 -14 0 -44 20 -79 53 l-56 52 -15 120 c-9 66 -19
155 -21 198 -6 89 0 94 63 50 55 -37 149 -72 214 -80 30 -3 64 -12 75 -19 28
-20 65 -17 91 7 22 20 24 21 66 5 70 -26 174 -46 205 -40 15 3 57 -1 93 -9 36
-9 100 -20 144 -27 74 -11 82 -15 149 -71 63 -53 74 -59 101 -53 53 12 73 30
68 64 -3 24 -13 34 -46 50 -32 15 -37 20 -24 25 10 4 15 12 12 17 -4 6 7 1 23
-12 25 -18 34 -20 52 -11 11 7 21 16 21 22 0 6 10 8 23 4 15 -5 12 0 -10 14
-18 11 -33 23 -33 25 0 7 82 -3 89 -10 3 -4 -12 -4 -34 0 -29 5 -36 4 -23 -4
17 -11 88 -10 88 1 0 8 -27 19 -46 19 -8 0 -27 9 -42 20 -41 30 -119 50 -198
50 -44 0 -94 8 -134 21 -91 29 -214 79 -220 89 -3 4 -24 17 -47 29 -24 12 -64
35 -90 51 -30 19 -50 27 -56 21 -6 -6 -27 -1 -56 15 -25 13 -52 24 -59 24 -7
0 -15 7 -19 16 -4 11 -13 13 -33 9 -19 -4 -29 -2 -33 9 -9 23 -90 66 -189 100
l-91 31 -1 63 c-1 35 2 66 7 69 4 2 7 15 7 29 0 17 8 27 25 34 43 16 42 38 -5
85 -41 42 -42 44 -30 77 12 32 10 40 -35 132 -27 55 -45 105 -42 116 7 26 -46
65 -98 74 -127 21 -156 24 -217 25 -88 1 -188 -43 -212 -93 -26 -54 -46 -146
-52 -231 -5 -68 -3 -86 14 -118 l20 -38 -77 -77 c-105 -105 -129 -154 -134
-268 -3 -60 -13 -117 -31 -174 -34 -106 -65 -282 -51 -287 6 -2 237 -156 515
-341 l505 -337 3 -69 c3 -60 7 -74 37 -114 l35 -45 0 -116 0 -117 -38 -37 -38
-37 -146 0 -147 0 -20 27 c-12 14 -24 37 -27 49 l-6 24 -324 0 c-206 0 -324
-4 -324 -10 0 -6 28 -10 63 -10 62 -1 279 -6 350 -9 25 -1 36 -5 31 -12 -4 -8
-1 -8 12 -1 21 11 74 11 74 0 0 -3 -6 -9 -12 -11 -12 -5 17 -11 35 -8 5 1 6
-3 3 -8 -9 -15 14 -25 27 -12 13 13 27 14 27 3 0 -5 -10 -14 -22 -20 -21 -10
-20 -11 7 -5 17 3 33 10 36 16 4 5 9 5 13 -2 9 -14 -17 -41 -38 -41 -9 0 -16
-5 -16 -10 0 -6 11 -8 25 -4 21 5 24 3 19 -11 -5 -13 -9 -14 -15 -3 -7 10 -9
8 -10 -7 0 -11 -3 -14 -6 -8 -3 10 -10 10 -25 2 -15 -8 -19 -8 -14 0 4 6 3 11
-3 11 -5 0 -15 -8 -21 -17 -9 -15 -10 -14 -5 7 5 25 5 25 -6 3 -10 -19 -21
-23 -63 -24 -28 0 -60 -2 -71 -4 -23 -3 -237 -22 -340 -30 -38 -2 -105 -5
-147 -5 -65 0 -76 -2 -72 -15 4 -8 12 -15 20 -15 8 0 14 -7 14 -15 0 -8 5 -15
10 -15 6 0 10 -6 10 -14 0 -8 8 -22 17 -32 25 -25 24 -235 -1 -262 -9 -10 -16
-24 -16 -30 0 -7 -4 -12 -10 -12 -5 0 -10 -7 -10 -15 0 -8 -7 -15 -15 -15 -8
0 -15 -7 -15 -15 0 -8 -5 -15 -10 -15 -6 0 -21 -11 -34 -24 -15 -17 -38 -27
-74 -32 -29 -3 -52 -10 -52 -15 0 -5 -36 -9 -80 -9 l-80 0 0 -144 c0 -122 -2
-145 -16 -150 -20 -8 -168 -8 -188 0 -14 5 -16 52 -16 425 l0 419 -117 -4
c-98 -3 -123 -1 -161 15 -45 20 -79 22 -334 20 -72 -1 -88 -4 -88 -16 0 -9 7
-18 15 -21 8 -4 15 -15 15 -25 0 -10 5 -19 10 -19 13 0 13 -107 0 -115 -6 -3
-10 -15 -10 -26 0 -10 -4 -19 -10 -19 -5 0 -12 -11 -16 -24 -3 -15 -15 -27
-30 -30 -13 -4 -24 -13 -24 -21 0 -8 -7 -15 -15 -15 -8 0 -15 -4 -15 -9 0 -5
-8 -12 -17 -15 -47 -18 -78 -42 -75 -59 2 -9 10 -17 18 -17 8 0 14 -7 14 -15
0 -8 7 -15 14 -15 8 0 37 -23 64 -50 47 -47 50 -49 56 -28 3 13 6 33 6 46 0
12 4 22 9 22 6 0 11 21 13 48 l3 47 65 3 c110 5 110 5 110 -93 0 -47 -4 -85
-9 -85 -5 0 -12 -19 -16 -42 -4 -24 -11 -45 -15 -48 -4 -3 -10 -15 -14 -27 -6
-17 -3 -23 9 -23 8 0 18 -7 21 -15 3 -8 22 -18 42 -21 51 -10 62 -25 62 -83 0
-40 -4 -53 -22 -65 -39 -28 -150 -15 -186 21 -7 7 -19 13 -27 13 -7 0 -16 7
-19 16 -7 17 -40 11 -64 -12 -7 -8 -20 -14 -28 -14 -8 0 -14 -4 -14 -9 0 -18
-137 -34 -252 -29 -90 4 -121 10 -153 27 -22 11 -45 21 -52 21 -7 0 -13 7 -13
15 0 8 -4 15 -10 15 -26 0 -77 78 -67 104 3 8 2 18 -3 21 -13 8 -13 135 0 135
5 0 9 3 8 8 -4 22 94 142 116 142 4 0 15 8 24 17 12 12 13 18 4 21 -6 2 -12
10 -12 18 0 8 -7 17 -15 20 -8 4 -15 12 -15 19 0 8 -8 21 -17 31 -25 25 -25
193 0 218 9 10 17 24 17 32 0 7 11 16 25 20 47 12 20 29 -81 52 -86 19 -133
23 -354 26 -140 2 -273 9 -295 15 -41 10 -272 14 -751 12 -230 -1 -274 1 -284
14 -14 17 -7 19 20 5 14 -8 21 -5 33 14 36 54 51 56 477 55 216 0 395 2 398 5
3 3 -229 6 -515 6 l-521 0 -6 -23 c-3 -13 -15 -36 -27 -50 l-20 -27 -148 0
-147 0 -37 38 -37 38 0 116 0 116 35 46 c32 42 35 52 35 111 l0 64 53 39 c49
36 631 423 781 519 51 33 66 47 57 56 -6 6 -11 19 -11 30 0 11 -11 22 -30 28
-16 6 -30 14 -30 18 0 13 -49 31 -83 31 -30 0 -34 3 -45 45 -16 60 -15 65 8
65 11 0 26 10 34 23 19 30 44 149 47 222 1 33 6 67 10 75 34 64 40 90 31 122
-5 18 -10 47 -11 65 -1 18 -6 44 -11 58 -6 15 -10 47 -10 73 0 26 -7 61 -16
77 -9 17 -27 59 -40 95 -26 69 -29 75 -65 160 -26 61 -118 165 -187 211 -88
59 -117 69 -259 85 -76 8 -193 26 -259 40 -133 26 -191 28 -274 9z m6524
-2603 c9 -15 -40 -51 -55 -41 -10 6 -7 10 11 18 14 5 21 10 17 10 -11 1 2 21
13 21 5 0 11 -4 14 -8z m-7094 -58 c0 -2 -7 -4 -15 -4 -8 0 -15 4 -15 10 0 5
7 7 15 4 8 -4 15 -8 15 -10z m6855 -24 c-3 -5 -12 -10 -18 -10 -7 0 -6 4 3 10
19 12 23 12 15 0z m-1130 -42 c4 -4 -1 -5 -12 -4 -10 2 -21 -1 -24 -6 -3 -5
-9 -3 -12 5 -4 10 2 13 18 13 13 -1 27 -5 30 -8z m84 -2 c9 -11 9 -16 0 -22
-8 -4 -9 -3 -5 4 4 7 2 12 -3 12 -6 0 -11 5 -11 10 0 14 5 13 19 -4z m62 -3
c13 -16 12 -17 -3 -4 -10 7 -18 15 -18 17 0 8 8 3 21 -13z m127 -24 c-3 -8 -7
-3 -11 10 -4 17 -3 21 5 13 5 -5 8 -16 6 -23z m-3404 5 c13 -5 16 -22 16 -78
0 -43 -5 -77 -12 -84 -8 -8 -50 -12 -125 -12 l-113 0 0 -359 c0 -318 -2 -360
-16 -365 -20 -8 -158 -8 -178 0 -14 5 -16 47 -16 365 l0 358 -117 3 -118 3 -3
74 c-2 41 -1 80 2 88 4 10 68 13 335 13 181 0 336 -3 345 -6z m-2019 -123 c-3
-5 -18 -12 -35 -16 -36 -8 -80 -41 -80 -61 0 -8 -4 -14 -10 -14 -5 0 -10 6
-10 13 0 8 -9 22 -20 32 -32 29 -26 49 13 43 17 -3 41 -2 52 3 28 11 97 11 90
0z m5885 -16 c0 -29 -5 -30 -44 -10 -15 8 -32 13 -36 10 -4 -3 -13 2 -20 10
-11 13 -5 15 44 15 53 0 56 -1 56 -25z m-2222 9 c16 -5 20 -10 12 -18 -6 -9
-38 -12 -97 -10 -49 2 -90 4 -93 5 -3 1 -8 1 -12 0 -5 0 -8 3 -8 9 0 5 30 11
68 13 37 2 76 4 87 5 11 1 30 -1 43 -4z m-3945 -49 c4 3 4 2 1 -2 -3 -5 -11
-8 -16 -8 -6 0 -13 -6 -16 -14 -3 -9 0 -11 9 -5 12 7 12 5 0 -9 -13 -16 -36
-14 -26 3 3 4 -1 11 -7 13 -8 3 -5 6 6 6 11 1 16 6 13 15 -8 21 6 29 19 12 6
-9 14 -14 17 -11z m-55 -84 c-10 -16 -38 -19 -38 -5 0 4 34 20 48 23 1 1 -3
-8 -10 -18z m219 -49 c-4 -2 -3 -10 3 -17 8 -9 8 -15 0 -20 -5 -3 -11 0 -11 7
-1 7 -3 24 -4 38 -4 39 8 60 15 25 3 -16 2 -32 -3 -33z m6115 16 c-6 -6 -12
-4 -16 7 -3 9 -2 13 4 10 6 -3 10 0 11 7 0 10 2 10 6 0 3 -8 1 -18 -5 -24z
m-6342 -242 c0 -3 -4 -8 -10 -11 -5 -3 -10 -1 -10 4 0 6 5 11 10 11 6 0 10 -2
10 -4z m6355 -75 c-3 -6 -11 -11 -16 -11 -5 0 -4 6 3 14 14 16 24 13 13 -3z
m28 -37 c-4 -10 -8 -10 -17 -1 -9 8 -10 14 -2 23 13 14 27 -2 19 -22z m-6449
10 c3 -8 2 -13 -3 -9 -5 3 -11 -1 -14 -7 -2 -7 -8 -10 -12 -6 -4 4 -1 14 6 22
17 19 16 19 23 0z m6296 -146 c0 -5 -13 -8 -30 -8 -36 0 -39 11 -7 25 21 10
36 3 37 -17z m-6272 -73 c-3 -3 -9 2 -12 12 -6 14 -5 15 5 6 7 -7 10 -15 7
-18z m1426 -73 c3 -5 -1 -9 -9 -9 -8 0 -12 4 -9 9 3 4 7 8 9 8 2 0 6 -4 9 -8z
m5049 -189 c-7 -2 -21 -2 -30 0 -10 3 -4 5 12 5 17 0 24 -2 18 -5z"/>
<path d="M3455 5701 c-125 -57 -187 -223 -138 -367 23 -68 102 -146 165 -163
159 -44 304 87 303 275 -1 192 -175 326 -330 255z"/>
<path d="M4365 5696 c-97 -45 -150 -136 -148 -256 1 -112 45 -197 127 -245 96
-55 191 -41 272 40 114 114 114 294 0 411 -76 78 -158 94 -251 50z"/>
<path d="M7748 5693 c6 -2 18 -2 25 0 6 3 1 5 -13 5 -14 0 -19 -2 -12 -5z"/>
<path d="M7592 5669 c7 -20 66 -35 80 -21 8 8 5 9 -11 5 -12 -3 -32 2 -47 12
-19 12 -25 13 -22 4z"/>
<path d="M7655 5620 c-3 -5 -2 -10 4 -10 5 0 13 5 16 10 3 6 2 10 -4 10 -5 0
-13 -4 -16 -10z"/>
<path d="M7650 5589 c0 -5 5 -7 10 -4 6 3 10 8 10 11 0 2 -4 4 -10 4 -5 0 -10
-5 -10 -11z"/>
<path d="M7918 5583 c7 -3 16 -2 19 1 4 3 -2 6 -13 5 -11 0 -14 -3 -6 -6z"/>
<path d="M7775 5538 c-6 -19 9 -79 20 -79 5 0 11 5 13 13 2 9 0 8 -7 -2 -9
-12 -11 -13 -11 -1 0 8 7 23 16 33 14 14 14 20 4 33 -15 18 -29 19 -35 3z m25
-13 c0 -8 -2 -15 -4 -15 -2 0 -6 7 -10 15 -3 8 -1 15 4 15 6 0 10 -7 10 -15z"/>
<path d="M2375 5213 c-245 -167 -575 -395 -575 -398 0 -1 21 1 48 5 26 4 76
11 112 14 36 4 159 18 273 31 115 14 210 25 213 25 2 0 4 8 4 18 0 10 -3 13
-8 6 -8 -12 -62 -14 -62 -2 0 4 -11 3 -24 -2 -28 -10 -33 -6 -63 57 -14 29
-17 45 -9 53 12 12 -3 13 -23 1 -7 -5 -11 -13 -7 -19 3 -5 -1 -12 -9 -15 -9
-4 -12 -1 -9 7 3 8 1 17 -5 20 -17 11 -2 33 41 61 33 22 42 24 50 13 7 -10 8
-9 6 4 -3 14 69 78 87 78 21 0 66 48 71 77 4 19 5 35 3 37 -2 2 -53 -30 -114
-71z m-200 -213 c-3 -5 -11 -10 -16 -10 -6 0 -7 5 -4 10 3 6 11 10 16 10 6 0
7 -4 4 -10z m30 -39 c-6 -5 -25 10 -25 20 0 5 6 4 14 -3 8 -7 12 -15 11 -17z
m75 20 c0 -5 -10 -11 -22 -14 -22 -6 -22 -6 -4 8 23 17 26 18 26 6z"/>
<path d="M5870 5056 c0 -3 9 -10 20 -16 11 -6 20 -8 20 -6 0 3 -9 10 -20 16
-11 6 -20 8 -20 6z"/>
<path d="M2240 5033 c-13 -15 -12 -16 4 -10 10 4 20 7 22 7 2 0 4 5 4 10 0 15
-13 12 -30 -7z"/>
<path d="M2332 5030 c-7 -11 -8 -20 -3 -20 9 0 24 30 18 36 -1 2 -8 -6 -15
-16z"/>
<path d="M2345 5001 c-6 -20 27 -65 39 -53 11 11 6 21 -15 27 -15 5 -18 10
-10 18 13 13 14 27 2 27 -5 0 -12 -9 -16 -19z"/>
<path d="M2390 5001 c0 -25 6 -27 13 -6 4 8 2 17 -3 20 -6 4 -10 -3 -10 -14z"/>
<path d="M2300 5001 c0 -5 5 -13 10 -16 6 -3 10 -2 10 4 0 5 -4 13 -10 16 -5
3 -10 2 -10 -4z"/>
<path d="M2320 4940 c0 -24 25 -27 34 -4 10 26 7 29 -10 8 -13 -16 -15 -16
-10 -1 3 9 1 17 -4 17 -6 0 -10 -9 -10 -20z"/>
<path d="M6038 4937 c8 -9 11 -21 8 -26 -4 -5 -2 -13 4 -16 6 -4 8 -15 5 -25
-3 -10 0 -22 7 -27 15 -9 171 -32 160 -23 -11 10 -165 116 -182 125 -13 8 -13
6 -2 -8z"/>
<path d="M5658 4883 c7 -3 16 -2 19 1 4 3 -2 6 -13 5 -11 0 -14 -3 -6 -6z"/>
<path d="M5728 4873 c6 -2 18 -2 25 0 6 3 1 5 -13 5 -14 0 -19 -2 -12 -5z"/>
<path d="M2858 4523 c6 -2 18 -2 25 0 6 3 1 5 -13 5 -14 0 -19 -2 -12 -5z"/>
<path d="M130 4430 c22 -33 43 -60 46 -60 2 0 -14 27 -36 60 -22 33 -43 60
-46 60 -2 0 14 -27 36 -60z"/>
<path d="M6049 4472 c-7 -9 -9 -14 -4 -9 4 4 17 0 27 -10 10 -9 21 -13 25 -10
3 4 1 7 -5 7 -7 0 -12 6 -12 14 0 23 -16 27 -31 8z"/>
<path d="M7913 4468 c-20 -26 -26 -41 -15 -34 12 7 36 46 29 46 -3 0 -9 -6
-14 -12z"/>
<path d="M215 4461 c-3 -5 -2 -12 3 -15 5 -3 9 1 9 9 0 17 -3 19 -12 6z"/>
<path d="M266 4437 c3 -10 9 -15 12 -12 3 3 0 11 -7 18 -10 9 -11 8 -5 -6z"/>
<path d="M7582 4428 c-19 -19 -14 -29 8 -16 20 13 27 28 12 28 -4 0 -13 -5
-20 -12z"/>
<path d="M401 4421 c-8 -5 -20 -7 -27 -4 -6 2 -15 0 -19 -6 -3 -7 0 -8 9 -5
11 4 14 0 11 -15 -2 -11 1 -23 6 -27 5 -3 9 -2 8 3 -4 25 2 45 14 40 8 -3 14
1 14 9 0 8 -1 14 -1 14 -1 0 -7 -4 -15 -9z"/>
<path d="M6115 4420 c4 -6 11 -8 16 -5 14 9 11 15 -7 15 -8 0 -12 -5 -9 -10z"/>
<path d="M251 4403 c7 -12 15 -20 18 -17 3 2 -3 12 -13 22 -17 16 -18 16 -5
-5z"/>
<path d="M7873 4408 c-15 -20 -25 -38 -20 -38 3 0 12 11 21 25 17 26 16 35 -1
13z"/>
<path d="M463 4389 c1 -14 5 -15 19 -8 14 7 18 6 18 -5 0 -8 8 -14 19 -13 11
0 17 5 15 9 -3 5 -10 6 -15 3 -5 -4 -9 0 -9 8 0 8 -11 17 -24 19 -19 4 -24 1
-23 -13z"/>
<path d="M7621 4387 c-13 -21 -12 -21 5 -5 10 10 16 20 13 22 -3 3 -11 -5 -18
-17z"/>
<path d="M7740 4390 c-9 -6 -10 -10 -3 -10 6 0 15 5 18 10 8 12 4 12 -15 0z"/>
<path d="M550 4362 c0 -12 19 -26 26 -19 2 2 -2 10 -11 17 -9 8 -15 8 -15 2z"/>
<path d="M180 4356 c0 -2 8 -10 18 -17 15 -13 16 -12 3 4 -13 16 -21 21 -21
13z"/>
<path d="M7829 4343 c-13 -16 -12 -17 4 -4 9 7 17 15 17 17 0 8 -8 3 -21 -13z"/>
<path d="M275 4329 c-11 -16 -1 -19 13 -3 7 8 8 14 3 14 -5 0 -13 -5 -16 -11z"/>
<path d="M229 4295 c30 -44 75 -93 62 -70 -6 11 -27 38 -47 60 -24 26 -29 30
-15 10z"/>
<path d="M677 4289 c7 -7 15 -10 18 -7 3 3 -2 9 -12 12 -14 6 -15 5 -6 -5z"/>
<path d="M7660 4290 c-9 -6 -10 -10 -3 -10 6 0 15 5 18 10 8 12 4 12 -15 0z"/>
<path d="M560 4281 c0 -6 4 -13 10 -16 6 -3 7 1 4 9 -7 18 -14 21 -14 7z"/>
<path d="M7766 4262 l-19 -27 24 22 c12 12 21 24 18 27 -2 2 -13 -8 -23 -22z"/>
<path d="M305 4270 c-3 -6 1 -7 9 -4 18 7 21 14 7 14 -6 0 -13 -4 -16 -10z"/>
<path d="M425 4271 c-3 -5 -2 -12 3 -15 5 -3 9 1 9 9 0 17 -3 19 -12 6z"/>
<path d="M481 4254 c0 -11 3 -14 6 -6 3 7 2 16 -1 19 -3 4 -6 -2 -5 -13z"/>
<path d="M7305 4260 c3 -5 8 -10 11 -10 2 0 4 5 4 10 0 6 -5 10 -11 10 -5 0
-7 -4 -4 -10z"/>
<path d="M513 4245 c0 -8 4 -12 9 -9 5 3 6 10 3 15 -9 13 -12 11 -12 -6z"/>
<path d="M605 4250 c3 -5 8 -10 11 -10 2 0 4 5 4 10 0 6 -5 10 -11 10 -5 0 -7
-4 -4 -10z"/>
<path d="M7230 4245 c-14 -16 -10 -18 14 -9 9 3 16 10 16 15 0 14 -16 11 -30
-6z"/>
<path d="M690 4244 c0 -13 18 -39 24 -34 2 3 -2 14 -10 24 -8 11 -14 16 -14
10z"/>
<path d="M7355 4240 c-3 -5 -1 -10 4 -10 6 0 11 5 11 10 0 6 -2 10 -4 10 -3 0
-8 -4 -11 -10z"/>
<path d="M3855 4230 c-6 -9 9 -12 70 -12 41 0 46 2 40 12 -3 6 -28 10 -55 10
-27 0 -52 -4 -55 -10z"/>
<path d="M775 4221 c6 -11 3 -13 -13 -9 -12 4 -22 2 -22 -3 0 -4 16 -8 35 -7
19 1 34 2 33 2 -2 1 -12 8 -22 16 -16 12 -18 12 -11 1z"/>
<path d="M7729 4213 c-13 -16 -12 -17 4 -4 9 7 17 15 17 17 0 8 -8 3 -21 -13z"/>
<path d="M7570 4205 c0 -8 2 -15 4 -15 2 0 6 7 10 15 3 8 1 15 -4 15 -6 0 -10
-7 -10 -15z"/>
<path d="M550 4201 c0 -6 4 -13 10 -16 6 -3 7 1 4 9 -7 18 -14 21 -14 7z"/>
<path d="M7132 4200 c5 -16 48 -46 48 -34 0 5 -12 18 -27 28 -16 12 -24 14
-21 6z"/>
<path d="M7348 4203 c7 -3 16 -2 19 1 4 3 -2 6 -13 5 -11 0 -14 -3 -6 -6z"/>
<path d="M7600 4200 c0 -5 7 -7 15 -4 8 4 15 8 15 10 0 2 -7 4 -15 4 -8 0 -15
-4 -15 -10z"/>
<path d="M675 4185 c-3 -8 -7 -21 -9 -28 -2 -7 5 -14 15 -14 10 -1 19 3 19 8
0 6 -5 7 -11 3 -9 -5 -10 1 -5 20 7 27 -1 37 -9 11z"/>
<path d="M711 4187 c-8 -10 -7 -14 2 -14 8 0 14 6 14 14 0 7 -1 13 -2 13 -2 0
-8 -6 -14 -13z"/>
<path d="M3826 4185 c-10 -28 -7 -55 9 -61 8 -4 15 -11 15 -18 0 -7 7 -21 17
-32 13 -17 20 -19 39 -10 13 6 24 14 24 19 0 4 7 7 15 7 8 0 15 5 15 10 0 6 9
19 21 31 11 11 19 30 17 42 -3 20 -9 22 -84 25 -68 2 -83 0 -88 -13z"/>
<path d="M310 4186 c0 -2 7 -9 15 -16 13 -11 14 -10 9 4 -5 14 -24 23 -24 12z"/>
<path d="M5090 4055 l0 -137 68 4 c66 3 102 20 102 46 0 5 7 15 15 22 17 14
22 130 5 130 -5 0 -10 6 -10 13 0 29 -36 47 -108 53 l-72 7 0 -138z"/>
<path d="M731 4153 c-14 -30 -14 -43 -1 -43 5 0 6 8 3 17 -5 12 -2 15 10 10 9
-3 16 -3 16 1 -4 21 2 32 14 26 6 -4 8 -3 4 1 -15 17 -35 12 -46 -12z"/>
<path d="M7621 4143 c0 -11 3 -13 6 -5 2 6 10 9 15 6 7 -4 8 -2 4 4 -11 18
-26 14 -25 -5z"/>
<path d="M350 4136 c0 -2 8 -10 18 -17 15 -13 16 -12 3 4 -13 16 -21 21 -21
13z"/>
<path d="M7530 4130 c-9 -6 -10 -10 -3 -10 6 0 15 5 18 10 8 12 4 12 -15 0z"/>
<path d="M7659 4123 c-13 -16 -12 -17 4 -4 9 7 17 15 17 17 0 8 -8 3 -21 -13z"/>
<path d="M630 4120 c0 -5 5 -10 10 -10 6 0 10 5 10 10 0 6 -4 10 -10 10 -5 0
-10 -4 -10 -10z"/>
<path d="M675 4110 c18 -20 35 -18 35 3 0 7 -4 6 -10 -3 -9 -13 -14 -7 -11 13
0 4 -6 7 -16 7 -14 0 -14 -2 2 -20z"/>
<path d="M7187 4109 c7 -7 15 -10 18 -7 3 3 -2 9 -12 12 -14 6 -15 5 -6 -5z"/>
<path d="M7235 4100 c3 -5 8 -10 11 -10 2 0 4 5 4 10 0 6 -5 10 -11 10 -5 0
-7 -4 -4 -10z"/>
<path d="M7446 4085 c-11 -8 -15 -15 -9 -15 6 0 16 7 23 15 16 19 11 19 -14 0z"/>
<path d="M390 4086 c0 -2 8 -10 18 -17 15 -13 16 -12 3 4 -13 16 -21 21 -21
13z"/>
<path d="M7615 4070 c-10 -11 -16 -22 -14 -24 2 -2 12 7 22 20 22 29 17 32 -8
4z"/>
<path d="M641 4064 c0 -12 6 -24 14 -28 8 -3 15 -1 15 4 0 6 -4 10 -9 10 -5 0
-12 8 -14 18 -4 13 -5 12 -6 -4z"/>
<path d="M670 4070 c0 -5 5 -10 10 -10 6 0 10 5 10 10 0 6 -4 10 -10 10 -5 0
-10 -4 -10 -10z"/>
<path d="M7190 4072 c0 -6 -3 -19 -6 -29 -5 -16 -5 -17 6 -1 6 11 17 15 28 11
18 -7 17 -5 -10 16 -11 8 -18 9 -18 3z"/>
<path d="M593 4055 c0 -6 -2 -24 -6 -40 -3 -17 -4 -24 -1 -17 3 6 9 10 14 7 4
-3 6 4 3 15 -4 14 1 26 13 35 18 13 18 14 -2 12 -11 0 -21 -6 -21 -12z"/>
<path d="M694 4052 c-6 -4 -7 -17 -3 -32 4 -14 7 -19 8 -12 1 6 9 12 19 12 16
1 16 1 -1 14 -14 11 -15 15 -5 19 7 3 9 6 3 6 -5 0 -15 -3 -21 -7z"/>
<path d="M7365 4049 c-4 -6 -5 -12 -2 -15 2 -3 7 2 10 11 7 17 1 20 -8 4z"/>
<path d="M440 4025 c13 -14 26 -25 28 -25 3 0 -5 11 -18 25 -13 14 -26 25 -28
25 -3 0 5 -11 18 -25z"/>
<path d="M7540 4029 c0 -5 5 -7 10 -4 6 3 10 8 10 11 0 2 -4 4 -10 4 -5 0 -10
-5 -10 -11z"/>
<path d="M518 4023 c7 -3 16 -2 19 1 4 3 -2 6 -13 5 -11 0 -14 -3 -6 -6z"/>
<path d="M546 4013 c-6 -14 -5 -15 5 -6 7 7 10 15 7 18 -3 3 -9 -2 -12 -12z"/>
<path d="M7574 4015 c-4 -8 -13 -15 -21 -15 -8 0 -11 -5 -8 -10 4 -6 11 -8 16
-5 11 8 32 45 24 45 -3 0 -8 -7 -11 -15z"/>
<path d="M760 4009 c0 -5 5 -7 10 -4 6 3 10 8 10 11 0 2 -4 4 -10 4 -5 0 -10
-5 -10 -11z"/>
<path d="M630 4006 c0 -2 10 -11 23 -19 17 -11 28 -12 38 -5 12 8 12 9 -1 5
-8 -2 -21 2 -28 10 -13 12 -32 18 -32 9z"/>
<path d="M7210 4000 c-9 -6 -10 -10 -3 -10 6 0 15 5 18 10 8 12 4 12 -15 0z"/>
<path d="M7517 3993 c-4 -3 -2 -12 4 -20 9 -10 8 -13 0 -13 -7 0 -9 -5 -5 -11
4 -8 9 -7 15 2 4 7 4 18 -1 25 -6 6 -7 14 -3 17 3 4 4 7 1 7 -2 0 -8 -3 -11
-7z"/>
<path d="M470 3986 c0 -2 8 -10 18 -17 15 -13 16 -12 3 4 -13 16 -21 21 -21
13z"/>
<path d="M605 3981 c-3 -6 -2 -11 4 -11 6 0 8 -7 5 -15 -4 -8 -1 -15 4 -15 6
0 9 10 7 21 -5 27 -11 33 -20 20z"/>
<path d="M530 3975 c0 -4 9 -18 20 -32 11 -14 20 -22 20 -18 0 4 -9 18 -20 32
-11 14 -20 22 -20 18z"/>
<path d="M708 3974 c-10 -10 20 -36 35 -31 9 4 9 6 -1 6 -7 1 -10 6 -6 13 4 6
3 8 -4 4 -5 -3 -12 -1 -14 5 -2 5 -6 7 -10 3z"/>
<path d="M510 3946 c0 -13 28 -52 40 -54 10 -2 7 5 -8 20 -12 14 -19 28 -15
31 3 4 1 7 -5 7 -7 0 -12 -2 -12 -4z"/>
<path d="M626 3918 c3 -4 9 -8 15 -8 5 0 9 4 9 8 0 5 -7 9 -15 9 -8 0 -12 -4
-9 -9z"/>
<path d="M7411 3914 c0 -11 3 -14 6 -6 3 7 2 16 -1 19 -3 4 -6 -2 -5 -13z"/>
<path d="M606 3907 c3 -10 9 -15 12 -12 3 3 0 11 -7 18 -10 9 -11 8 -5 -6z"/>
<path d="M710 3911 c0 -6 -8 -11 -17 -12 -10 0 -13 -3 -6 -5 18 -8 49 11 34
20 -6 4 -11 2 -11 -3z"/>
<path d="M7461 3904 c0 -11 3 -14 6 -6 3 7 2 16 -1 19 -3 4 -6 -2 -5 -13z"/>
<path d="M7370 3901 c0 -5 5 -13 10 -16 6 -3 10 -2 10 4 0 5 -4 13 -10 16 -5
3 -10 2 -10 -4z"/>
<path d="M7491 3895 c0 -11 9 -31 20 -45 l21 -25 -15 25 c-8 14 -17 35 -20 45
-5 20 -5 20 -6 0z"/>
<path d="M561 3864 c0 -11 3 -14 6 -6 3 7 2 16 -1 19 -3 4 -6 -2 -5 -13z"/>
<path d="M580 3870 c0 -5 7 -7 15 -4 8 4 15 8 15 10 0 2 -7 4 -15 4 -8 0 -15
-4 -15 -10z"/>
<path d="M625 3870 c3 -5 11 -10 16 -10 6 0 7 5 4 10 -3 6 -11 10 -16 10 -6 0
-7 -4 -4 -10z"/>
<path d="M7308 3873 c7 -3 16 -2 19 1 4 3 -2 6 -13 5 -11 0 -14 -3 -6 -6z"/>
<path d="M7260 3866 c0 -2 7 -6 15 -10 8 -3 15 -1 15 4 0 6 -7 10 -15 10 -8 0
-15 -2 -15 -4z"/>
<path d="M7350 3860 c0 -5 7 -7 15 -4 8 4 15 8 15 10 0 2 -7 4 -15 4 -8 0 -15
-4 -15 -10z"/>
<path d="M7411 3854 c0 -11 3 -14 6 -6 3 7 2 16 -1 19 -3 4 -6 -2 -5 -13z"/>
<path d="M511 3846 c-9 -11 -9 -16 0 -22 7 -4 9 -3 5 4 -3 6 2 15 11 21 10 6
13 11 7 11 -6 0 -17 -6 -23 -14z"/>
<path d="M607 3846 c-4 -10 -1 -13 8 -9 8 3 12 9 9 14 -7 12 -11 11 -17 -5z"/>
<path d="M650 3840 c0 -5 5 -10 11 -10 5 0 7 5 4 10 -3 6 -8 10 -11 10 -2 0
-4 -4 -4 -10z"/>
<path d="M612 3821 c-11 -7 -11 -9 0 -14 9 -3 15 1 15 9 0 8 -1 14 -1 14 -1 0
-7 -4 -14 -9z"/>
<path d="M3788 3809 c-10 -10 -20 -30 -24 -44 -3 -14 -10 -25 -15 -25 -5 0 -9
-11 -9 -25 0 -14 4 -25 9 -25 5 0 12 -13 16 -30 4 -16 11 -30 17 -30 5 0 17
-7 25 -16 13 -13 33 -15 95 -12 43 2 82 8 86 14 4 6 13 13 21 16 10 3 7 11
-13 31 -15 15 -30 27 -35 27 -4 0 -40 32 -79 70 -39 39 -72 70 -74 69 -2 0
-11 -9 -20 -20z"/>
<path d="M7406 3817 c3 -10 9 -15 12 -12 3 3 0 11 -7 18 -10 9 -11 8 -5 -6z"/>
<path d="M530 3809 c0 -5 5 -7 10 -4 6 3 10 8 10 11 0 2 -4 4 -10 4 -5 0 -10
-5 -10 -11z"/>
<path d="M666 3803 c-6 -14 -5 -15 5 -6 7 7 10 15 7 18 -3 3 -9 -2 -12 -12z"/>
<path d="M7286 3812 c-3 -5 1 -9 9 -9 8 0 12 4 9 9 -3 4 -7 8 -9 8 -2 0 -6 -4
-9 -8z"/>
<path d="M7330 3809 c0 -5 5 -7 10 -4 6 3 10 8 10 11 0 2 -4 4 -10 4 -5 0 -10
-5 -10 -11z"/>
<path d="M7536 3807 c3 -10 9 -15 12 -12 3 3 0 11 -7 18 -10 9 -11 8 -5 -6z"/>
<path d="M703 3793 c-18 -7 -33 -15 -33 -17 0 -6 44 6 57 16 7 6 13 3 15 -9 3
-16 4 -16 10 3 6 24 -4 26 -49 7z"/>
<path d="M7366 3791 c-3 -5 3 -11 13 -14 14 -3 18 -1 14 9 -6 16 -19 18 -27 5z"/>
<path d="M7270 3781 c0 -5 5 -13 10 -16 6 -3 10 -2 10 4 0 5 -4 13 -10 16 -5
3 -10 2 -10 -4z"/>
<path d="M590 3776 c0 -2 7 -6 15 -10 8 -3 15 -1 15 4 0 6 -7 10 -15 10 -8 0
-15 -2 -15 -4z"/>
<path d="M7457 3761 c-4 -17 -3 -21 5 -13 5 5 8 16 6 23 -3 8 -7 3 -11 -10z"/>
<path d="M466 3757 c3 -10 9 -15 12 -12 3 3 0 11 -7 18 -10 9 -11 8 -5 -6z"/>
<path d="M7530 3749 c0 -5 5 -7 10 -4 6 3 10 8 10 11 0 2 -4 4 -10 4 -5 0 -10
-5 -10 -11z"/>
<path d="M606 3735 c-16 -12 -17 -15 -4 -15 9 0 18 7 22 15 7 18 6 18 -18 0z"/>
<path d="M7573 3739 c3 -9 0 -23 -6 -30 -7 -8 -3 -6 8 3 16 15 17 20 6 30 -11
11 -13 10 -8 -3z"/>
<path d="M7331 3733 c-1 -17 16 -25 25 -12 4 7 3 9 -4 5 -5 -3 -13 0 -15 6 -4
9 -6 10 -6 1z"/>
<path d="M7267 3716 c-4 -10 -1 -13 8 -9 8 3 12 9 9 14 -7 12 -11 11 -17 -5z"/>
<path d="M7376 3713 c-6 -14 -5 -15 5 -6 7 7 10 15 7 18 -3 3 -9 -2 -12 -12z"/>
<path d="M7445 3720 l-30 -6 32 -5 c18 -3 38 -2 44 1 17 11 -11 17 -46 10z"/>
<path d="M640 3700 c0 -5 5 -10 10 -10 6 0 10 5 10 10 0 6 -4 10 -10 10 -5 0
-10 -4 -10 -10z"/>
<path d="M7301 3707 c2 -1 13 -9 24 -17 19 -14 19 -14 6 3 -7 9 -18 17 -24 17
-6 0 -8 -1 -6 -3z"/>
<path d="M7403 3695 c0 -8 4 -15 9 -15 4 0 8 4 8 9 0 6 -4 12 -8 15 -5 3 -9
-1 -9 -9z"/>
<path d="M612 3691 c-11 -6 -10 -10 4 -15 9 -3 19 -4 22 -1 3 3 0 5 -7 5 -7 0
-9 5 -6 10 7 12 4 12 -13 1z"/>
<path d="M7615 3683 c4 -14 2 -23 -5 -23 -6 0 -8 -5 -4 -11 5 -8 10 -6 16 5 6
10 5 22 -2 34 -9 15 -10 14 -5 -5z"/>
<path d="M400 3670 c-6 -11 -8 -20 -6 -20 3 0 10 9 16 20 6 11 8 20 6 20 -3 0
-10 -9 -16 -20z"/>
<path d="M545 3680 c-3 -5 -1 -10 4 -10 6 0 11 5 11 10 0 6 -2 10 -4 10 -3 0
-8 -4 -11 -10z"/>
<path d="M7456 3675 c4 -8 8 -15 10 -15 2 0 4 7 4 15 0 8 -4 15 -10 15 -5 0
-7 -7 -4 -15z"/>
<path d="M7251 3666 c-9 -11 -9 -16 1 -22 7 -4 10 -4 6 1 -4 4 -3 14 3 22 6 7
9 13 6 13 -2 0 -10 -6 -16 -14z"/>
<path d="M7280 3676 c0 -2 7 -9 15 -16 13 -11 14 -10 9 4 -5 14 -24 23 -24 12z"/>
<path d="M7546 3654 c-4 -9 -4 -19 -1 -22 2 -3 7 3 11 12 4 9 4 19 1 22 -2 3
-7 -3 -11 -12z"/>
<path d="M445 3649 c-4 -6 -5 -12 -2 -15 2 -3 7 2 10 11 7 17 1 20 -8 4z"/>
<path d="M7428 3653 c6 -2 9 -10 6 -15 -4 -7 -2 -8 5 -4 13 9 5 26 -12 25 -9
0 -8 -2 1 -6z"/>
<path d="M7655 3610 c10 -11 20 -20 23 -20 3 0 -3 9 -13 20 -10 11 -20 20 -23
20 -3 0 3 -9 13 -20z"/>
<path d="M7190 3616 c0 -2 8 -10 18 -17 15 -13 16 -12 3 4 -13 16 -21 21 -21
13z"/>
<path d="M7621 3604 c0 -11 3 -14 6 -6 3 7 2 16 -1 19 -3 4 -6 -2 -5 -13z"/>
<path d="M413 3595 c-3 -9 -3 -19 1 -22 3 -4 6 1 6 10 0 8 8 18 18 20 16 4 16
5 -1 6 -10 0 -20 -6 -24 -14z"/>
<path d="M506 3602 c-3 -4 4 -9 15 -9 23 -2 25 3 4 10 -8 4 -16 3 -19 -1z"/>
<path d="M7491 3594 c0 -11 3 -14 6 -6 3 7 2 16 -1 19 -3 4 -6 -2 -5 -13z"/>
<path d="M7540 3601 c0 -5 5 -13 10 -16 6 -3 10 -2 10 4 0 5 -4 13 -10 16 -5
3 -10 2 -10 -4z"/>
<path d="M7580 3589 c0 -5 5 -7 10 -4 6 3 10 8 10 11 0 2 -4 4 -10 4 -5 0 -10
-5 -10 -11z"/>
<path d="M325 3554 c-9 -15 -12 -23 -6 -20 11 7 35 46 28 46 -3 0 -12 -12 -22
-26z"/>
<path d="M480 3561 c0 -6 4 -13 10 -16 6 -3 7 1 4 9 -7 18 -14 21 -14 7z"/>
<path d="M7153 3549 c-1 -10 2 -21 8 -24 5 -3 6 1 3 9 -3 9 2 16 13 18 16 3
16 4 -2 9 -15 5 -21 1 -22 -12z"/>
<path d="M7385 3560 c-3 -5 -1 -10 4 -10 6 0 11 5 11 10 0 6 -2 10 -4 10 -3 0
-8 -4 -11 -10z"/>
<path d="M7537 3559 c7 -7 15 -10 18 -7 3 3 -2 9 -12 12 -14 6 -15 5 -6 -5z"/>
<path d="M515 3550 c-3 -6 1 -7 9 -4 18 7 21 14 7 14 -6 0 -13 -4 -16 -10z"/>
<path d="M7406 3545 c-3 -8 -1 -15 4 -15 6 0 10 7 10 15 0 8 -2 15 -4 15 -2 0
-6 -7 -10 -15z"/>
<path d="M7707 3535 c21 -35 43 -60 43 -48 0 4 -14 24 -31 43 -28 32 -29 33
-12 5z"/>
<path d="M440 3525 c-7 -9 -8 -15 -2 -15 5 0 12 7 16 15 3 8 4 15 2 15 -2 0
-9 -7 -16 -15z"/>
<path d="M675 3509 c-11 -4 -14 -8 -7 -8 6 -1 11 -5 10 -10 -3 -10 2 -11 35
-10 12 0 16 3 9 6 -6 2 -9 10 -5 16 3 7 -4 3 -18 -8 -18 -16 -21 -16 -10 -2
17 22 12 27 -14 16z"/>
<path d="M290 3506 c0 -2 7 -6 15 -10 8 -3 15 -1 15 4 0 6 -7 10 -15 10 -8 0
-15 -2 -15 -4z"/>
<path d="M7535 3500 c3 -5 8 -10 11 -10 2 0 4 5 4 10 0 6 -5 10 -11 10 -5 0
-7 -4 -4 -10z"/>
<path d="M7630 3500 c0 -5 5 -10 11 -10 5 0 7 5 4 10 -3 6 -8 10 -11 10 -2 0
-4 -4 -4 -10z"/>
<path d="M415 3480 c3 -5 8 -10 11 -10 2 0 4 5 4 10 0 6 -5 10 -11 10 -5 0 -7
-4 -4 -10z"/>
<path d="M7540 3467 c0 -8 7 -14 15 -14 11 0 12 4 4 14 -6 7 -13 13 -15 13 -2
0 -4 -6 -4 -13z"/>
<path d="M7600 3471 c0 -6 4 -13 10 -16 6 -3 7 1 4 9 -7 18 -14 21 -14 7z"/>
<path d="M255 3460 c-3 -6 1 -7 9 -4 18 7 21 14 7 14 -6 0 -13 -4 -16 -10z"/>
<path d="M620 3460 c0 -6 7 -10 15 -10 8 0 15 2 15 4 0 2 -7 6 -15 10 -8 3
-15 1 -15 -4z"/>
<path d="M710 3460 c0 -5 5 -10 10 -10 6 0 10 5 10 10 0 6 -4 10 -10 10 -5 0
-10 -4 -10 -10z"/>
<path d="M380 3445 c7 -8 17 -15 22 -15 5 0 3 7 -6 15 -8 8 -18 15 -22 15 -3
0 -1 -7 6 -15z"/>
<path d="M7505 3450 c3 -5 8 -10 11 -10 2 0 4 5 4 10 0 6 -5 10 -11 10 -5 0
-7 -4 -4 -10z"/>
<path d="M559 3433 c-13 -16 -12 -17 4 -4 9 7 17 15 17 17 0 8 -8 3 -21 -13z"/>
<path d="M235 3429 c-4 -6 -4 -13 -1 -16 3 -4 6 -1 6 6 0 7 5 9 12 5 7 -4 8
-3 4 4 -9 15 -13 15 -21 1z"/>
<path d="M336 3428 c3 -4 9 -8 15 -8 5 0 9 4 9 8 0 5 -7 9 -15 9 -8 0 -12 -4
-9 -9z"/>
<path d="M7770 3430 c-9 -6 -10 -10 -3 -10 6 0 15 5 18 10 8 12 4 12 -15 0z"/>
<path d="M420 3420 c0 -5 5 -10 11 -10 5 0 7 5 4 10 -3 6 -8 10 -11 10 -2 0
-4 -4 -4 -10z"/>
<path d="M7534 3409 c0 -10 4 -19 8 -19 4 0 8 6 8 14 0 8 -4 17 -8 20 -4 2 -8
-4 -8 -15z"/>
<path d="M7568 3423 c7 -3 16 -2 19 1 4 3 -2 6 -13 5 -11 0 -14 -3 -6 -6z"/>
<path d="M7660 3426 c0 -2 7 -7 16 -10 8 -3 12 -2 9 4 -6 10 -25 14 -25 6z"/>
<path d="M5576 3397 c-14 -15 -15 -19 -4 -15 9 4 21 1 27 -5 8 -8 14 -7 24 2
6 8 7 11 2 8 -6 -3 -17 -2 -25 4 -13 7 -12 9 3 9 9 0 17 5 17 10 0 16 -24 10
-44 -13z"/>
<path d="M509 3397 c6 -8 7 -18 3 -22 -4 -5 -1 -5 6 -1 10 6 10 11 1 22 -6 8
-14 14 -16 14 -3 0 0 -6 6 -13z"/>
<path d="M5499 3386 c-10 -21 -10 -21 6 -1 12 15 18 17 24 7 6 -11 10 -11 19
0 8 10 5 13 -14 14 -16 1 -28 -5 -35 -20z"/>
<path d="M7800 3405 c0 -5 10 -21 21 -35 13 -17 17 -18 10 -5 -17 33 -31 51
-31 40z"/>
<path d="M210 3391 c0 -5 5 -13 10 -16 6 -3 10 -2 10 4 0 5 -4 13 -10 16 -5 3
-10 2 -10 -4z"/>
<path d="M350 3378 c-12 -22 -12 -22 6 -6 10 10 15 20 12 24 -4 3 -12 -5 -18
-18z"/>
<path d="M2310 3390 c0 -5 5 -10 11 -10 5 0 7 5 4 10 -3 6 -8 10 -11 10 -2 0
-4 -4 -4 -10z"/>
<path d="M7486 3388 c3 -4 11 -5 19 -1 21 7 19 12 -4 10 -11 0 -18 -5 -15 -9z"/>
<path d="M534 3368 l-19 -23 23 19 c21 18 27 26 19 26 -2 0 -12 -10 -23 -22z"/>
<path d="M5670 3380 c0 -5 5 -10 10 -10 6 0 10 5 10 10 0 6 -4 10 -10 10 -5 0
-10 -4 -10 -10z"/>
<path d="M680 3356 c0 -2 7 -7 16 -10 8 -3 12 -2 9 4 -6 10 -25 14 -25 6z"/>
<path d="M7341 3341 c-11 -11 -23 -16 -27 -13 -3 4 -2 -3 4 -14 6 -12 8 -24 4
-28 -3 -4 1 -4 9 -1 10 4 14 14 12 29 -3 16 2 25 19 33 13 7 17 12 11 12 -7 1
-22 -8 -32 -18z"/>
<path d="M176 3333 c-6 -14 -5 -15 5 -6 7 7 10 15 7 18 -3 3 -9 -2 -12 -12z"/>
<path d="M350 3340 c0 -5 5 -10 11 -10 5 0 7 5 4 10 -3 6 -8 10 -11 10 -2 0
-4 -4 -4 -10z"/>
<path d="M5680 3340 c0 -5 5 -10 11 -10 5 0 7 5 4 10 -3 6 -8 10 -11 10 -2 0
-4 -4 -4 -10z"/>
<path d="M7801 3336 c-9 -11 -9 -16 1 -22 7 -4 10 -4 6 1 -4 4 -3 14 3 22 6 7
9 13 6 13 -2 0 -10 -6 -16 -14z"/>
<path d="M2324 3318 c-4 -7 -4 -10 1 -6 4 4 15 2 24 -5 14 -11 14 -10 2 6 -16
20 -18 21 -27 5z"/>
<path d="M2360 3326 c0 -2 8 -10 18 -17 15 -13 16 -12 3 4 -13 16 -21 21 -21
13z"/>
<path d="M383 3294 c0 -17 2 -22 7 -13 5 6 6 18 3 26 -8 19 -10 16 -10 -13z"/>
<path d="M569 3303 c-13 -16 -12 -17 4 -4 16 13 21 21 13 21 -2 0 -10 -8 -17
-17z"/>
<path d="M250 3306 c0 -2 8 -10 18 -17 15 -13 16 -12 3 4 -13 16 -21 21 -21
13z"/>
<path d="M4901 3284 c0 -11 3 -14 6 -6 3 7 2 16 -1 19 -3 4 -6 -2 -5 -13z"/>
<path d="M5236 3285 c4 -8 7 -15 9 -15 2 0 5 7 9 15 3 9 0 15 -9 15 -9 0 -12
-6 -9 -15z"/>
<path d="M3360 3280 c0 -5 -5 -10 -12 -10 -6 0 -23 -10 -36 -22 -22 -21 -33
-23 -139 -23 -100 0 -116 -2 -128 -19 -14 -18 -15 -18 -40 3 -24 18 -95 28
-95 12 0 -10 125 -123 145 -131 86 -35 127 -48 113 -37 -10 8 -15 17 -11 21 4
4 -1 4 -11 0 -13 -5 -17 -4 -13 3 4 6 1 14 -5 17 -7 3 1 4 17 1 17 -4 35 -12
40 -19 6 -7 28 -13 49 -12 22 0 41 -4 43 -10 2 -7 -4 -11 -13 -10 -9 0 -18 -6
-19 -16 -2 -11 7 -18 29 -22 17 -3 51 -22 75 -41 25 -20 50 -34 57 -31 7 3 18
-3 26 -12 11 -13 11 -14 -1 -7 -10 5 -12 4 -7 -4 4 -6 12 -9 17 -6 18 12 133
-81 122 -98 -3 -6 -1 -7 4 -4 6 4 14 -1 17 -10 6 -15 9 -15 16 -3 9 14 17 1
34 -53 8 -25 42 -18 38 8 -11 65 -13 208 -4 235 13 35 6 64 -13 56 -14 -5 -55
28 -55 44 0 6 -6 10 -14 10 -7 0 -16 9 -19 20 -6 24 -3 25 28 4 18 -12 28 -13
42 -4 16 10 16 10 -4 5 -12 -3 -24 -2 -27 3 -12 20 43 19 64 0 12 -11 28 -17
36 -14 17 7 18 2 2 -23 -6 -10 -18 -17 -27 -16 -9 1 -11 0 -4 -2 7 -2 9 -11 6
-19 -10 -27 5 -14 28 24 39 62 114 121 189 148 l35 13 -40 1 c-22 0 -74 0
-115 -1 -91 -1 -217 2 -288 6 -41 2 -60 8 -81 29 -28 27 -51 34 -51 16z"/>
<path d="M5306 3282 c-3 -5 1 -9 9 -9 8 0 12 4 9 9 -3 4 -7 8 -9 8 -2 0 -6 -4
-9 -8z"/>
<path d="M5574 3274 c-18 -14 -18 -14 6 -3 31 14 36 19 24 19 -6 0 -19 -7 -30
-16z"/>
<path d="M5362 3261 c7 -9 13 -18 15 -20 1 -2 1 5 0 16 0 11 -7 20 -14 20 -10
0 -10 -4 -1 -16z"/>
<path d="M7387 3273 c-4 -3 -7 -11 -7 -17 0 -6 5 -5 12 2 6 6 9 14 7 17 -3 3
-9 2 -12 -2z"/>
<path d="M110 3245 c-7 -9 -8 -15 -2 -15 5 0 12 7 16 15 3 8 4 15 2 15 -2 0
-9 -7 -16 -15z"/>
<path d="M2448 3238 c6 -6 18 -8 28 -6 14 3 12 5 -9 10 -19 3 -25 2 -19 -4z"/>
<path d="M2668 3222 c-16 -2 -28 -7 -28 -11 0 -10 213 -42 222 -33 4 4 -7 8
-24 9 -17 1 -38 9 -47 16 -17 15 -79 25 -123 19z"/>
<path d="M2583 3213 c9 -2 25 -2 35 0 9 3 1 5 -18 5 -19 0 -27 -2 -17 -5z"/>
<path d="M2930 3145 c14 -8 30 -14 35 -14 6 0 -1 6 -15 14 -14 8 -29 14 -35
14 -5 0 1 -6 15 -14z"/>
<path d="M2246 2943 c34 -39 76 -96 93 -126 17 -30 37 -60 45 -66 9 -8 44 -11
93 -9 l78 3 3 97 c2 85 1 97 -15 102 -35 9 -135 28 -226 41 -51 7 -101 17
-112 21 -12 5 5 -21 41 -63z"/>
<path d="M5710 2989 c-52 -10 -128 -24 -168 -31 l-73 -12 3 -100 3 -101 82 -3
82 -3 60 90 c33 49 65 92 70 95 5 4 24 24 41 46 37 47 40 46 -100 19z"/>
<path d="M2652 2791 l3 -136 115 0 115 0 0 92 c0 98 -5 111 -49 119 -15 2 -38
12 -51 20 -13 9 -49 21 -80 29 l-56 13 3 -137z"/>
<path d="M5312 2913 c-35 -7 -75 -22 -89 -33 -14 -11 -34 -20 -43 -20 -33 0
-41 -25 -38 -117 l3 -88 113 -3 c86 -2 114 0 118 11 2 7 3 69 2 138 l-3 125
-63 -13z"/>
<path d="M6502 2875 c0 -16 2 -22 5 -12 2 9 2 23 0 30 -3 6 -5 -1 -5 -18z"/>
<path d="M1825 2847 c-9 -14 -21 -77 -30 -149 -8 -69 -17 -132 -20 -140 -4 -9
-2 -19 4 -23 6 -3 11 -3 11 2 4 76 41 289 54 308 9 14 12 25 6 25 -5 0 -16
-11 -25 -23z"/>
<path d="M6512 2815 c0 -16 2 -22 5 -12 2 9 2 23 0 30 -3 6 -5 -1 -5 -18z"/>
<path d="M2972 2608 l3 -193 139 -3 c77 -1 143 1 148 6 15 15 25 154 15 194
-8 34 -18 42 -96 85 -78 44 -198 103 -208 103 -2 0 -2 -87 -1 -192z"/>
<path d="M4902 2723 l-143 -75 3 -117 3 -116 145 0 145 0 3 193 c1 105 -1 192
-5 191 -5 0 -72 -34 -151 -76z"/>
<path d="M6472 2744 c-18 -19 -40 -34 -49 -34 -8 0 -88 -37 -177 -83 -141 -73
-297 -173 -376 -242 -14 -12 -46 -29 -71 -38 -59 -19 -155 -82 -139 -92 6 -4
27 5 46 20 20 15 57 35 83 44 25 10 75 39 110 64 35 26 67 45 71 42 5 -3 11 3
14 12 11 34 117 105 266 179 82 40 160 76 173 79 25 7 95 71 86 79 -2 3 -19
-11 -37 -30z"/>
<path d="M1980 2708 c-16 -22 -30 -53 -30 -67 0 -17 -11 -36 -30 -53 -24 -21
-30 -34 -30 -68 0 -34 -7 -50 -41 -90 -29 -34 -39 -54 -35 -68 4 -13 1 -22 -9
-26 -23 -8 -18 -20 15 -34 16 -8 36 -26 43 -40 8 -15 20 -25 28 -23 42 12 66
11 77 -2 10 -12 8 -14 -12 -10 -16 3 -30 -3 -44 -17 -27 -30 -53 -22 -117 34
l-49 43 11 68 c13 74 18 84 35 67 7 -7 19 -12 27 -12 10 0 6 9 -12 28 -15 15
-27 33 -27 39 0 7 -5 15 -11 19 -8 5 -10 -1 -6 -18 4 -14 1 -41 -7 -59 -24
-59 -30 -128 -12 -147 15 -17 56 -193 56 -240 0 -14 8 -31 18 -38 15 -12 15
-15 2 -24 -13 -9 -8 -18 30 -53 25 -23 61 -62 80 -87 19 -25 49 -58 66 -75 18
-17 39 -52 48 -79 42 -130 138 -208 272 -221 65 -7 73 -5 108 19 45 31 80 33
98 8 29 -42 70 -56 202 -73 82 -10 142 -13 161 -8 51 15 155 92 253 188 35 35
76 115 69 135 -2 6 -13 -11 -25 -37 -27 -61 -54 -94 -100 -126 -20 -13 -43
-33 -50 -43 -21 -28 -132 -97 -168 -104 -18 -3 -84 1 -147 8 -130 17 -164 34
-197 98 -31 61 -28 70 23 58 23 -6 96 -11 162 -12 115 -1 122 0 168 27 46 27
60 47 33 47 -7 0 -25 -9 -39 -20 -37 -29 -94 -36 -220 -28 -91 7 -117 12 -151
33 -61 36 -112 94 -140 157 l-25 57 36 -25 c20 -13 43 -24 52 -24 9 0 75 -7
146 -16 200 -23 284 -23 320 1 32 21 95 81 95 90 0 17 -41 0 -70 -30 -51 -53
-81 -59 -222 -45 -131 13 -211 41 -259 89 -14 14 -35 33 -46 41 -27 21 -58 68
-74 113 -16 45 -29 48 -29 7 0 -16 -5 -30 -11 -30 -16 0 -2 -100 17 -121 8 -8
14 -23 14 -31 0 -24 59 -151 76 -165 12 -9 3 -13 -50 -18 -85 -9 -146 0 -221
34 -57 26 -175 125 -175 147 0 6 26 7 68 3 72 -6 132 -1 132 12 0 4 -12 9 -27
11 -24 3 -19 6 29 22 53 17 87 40 76 51 -2 2 -36 -8 -76 -23 -61 -24 -79 -27
-129 -21 -32 4 -68 8 -80 8 -12 1 -35 13 -53 27 -23 20 -28 29 -20 40 9 10 17
7 38 -17 22 -25 39 -32 98 -41 67 -10 74 -10 126 14 64 29 138 92 138 117 0 9
5 22 11 28 18 18 -41 42 -128 53 -43 5 -100 15 -127 22 -41 10 -45 13 -25 18
15 4 25 14 27 28 2 12 8 22 13 22 5 0 9 5 9 10 0 6 -7 10 -15 10 -9 0 -27 7
-40 16 -16 10 -34 14 -54 9 -86 -19 -44 138 46 173 45 18 70 19 188 8 l90 -8
-22 24 c-13 13 -23 31 -23 40 0 9 -4 18 -8 20 -5 2 -28 31 -51 66 l-43 64 -51
-7 c-29 -4 -58 -12 -66 -19 -11 -9 -13 -6 -6 14 10 34 33 70 45 70 6 0 10 7
10 15 0 26 -19 16 -50 -27z m118 -85 c-10 -2 -26 -2 -35 0 -10 3 -2 5 17 5 19
0 27 -2 18 -5z m-71 -9 c-3 -3 -12 -4 -19 -1 -8 3 -5 6 6 6 11 1 17 -2 13 -5z
m30 -60 c-3 -3 -12 -4 -19 -1 -8 3 -5 6 6 6 11 1 17 -2 13 -5z m-77 -59 c0 -2
-13 -11 -30 -20 -38 -19 -40 -11 -2 9 31 17 32 18 32 11z m-96 -80 c-9 -14
-19 -23 -22 -20 -5 4 26 45 35 45 2 0 -4 -11 -13 -25z m-54 -259 c1 -17 7 -42
15 -56 19 -33 19 -64 0 -80 -12 -10 -15 -9 -15 7 0 10 -4 23 -8 29 -5 5 -14
36 -21 69 -7 33 -15 68 -18 78 -5 18 -4 18 21 2 19 -12 26 -26 26 -49z m62 -2
c-13 -9 -26 -13 -30 -9 -8 8 17 25 38 25 9 0 6 -6 -8 -16z m118 -11 c2 -2 0
-7 -6 -11 -17 -11 -25 -71 -13 -93 20 -38 3 -38 -59 2 -72 46 -78 70 -27 99
27 15 89 17 105 3z m218 -42 c12 -7 12 -12 0 -32 -21 -38 -60 -79 -75 -79 -9
0 -4 10 12 27 14 15 28 42 31 60 7 35 11 38 32 24z m-174 -10 c10 -16 -5 -41
-25 -41 -14 0 -19 7 -19 25 0 18 5 25 19 25 11 0 22 -4 25 -9z m80 -12 c-3 -5
-10 -7 -15 -3 -5 3 -7 10 -3 15 3 5 10 7 15 3 5 -3 7 -10 3 -15z m-199 -63
c23 -18 50 -26 103 -32 80 -7 92 -19 32 -29 -92 -16 -180 16 -180 65 0 26 6
25 45 -4z m203 12 c-6 -18 -28 -21 -28 -4 0 9 7 16 16 16 9 0 14 -5 12 -12z
m251 -147 c33 -30 66 -58 73 -62 9 -6 6 -9 -10 -9 -74 0 -159 89 -161 170 0
23 1 22 19 -10 10 -19 45 -59 79 -89z m-350 3 c8 -7 -84 -2 -114 6 -18 5 -2 6
40 3 39 -3 72 -7 74 -9z m226 -236 c44 0 94 3 111 5 46 8 102 -44 106 -97 3
-36 0 -40 -27 -50 -17 -6 -41 -19 -55 -28 -35 -23 -138 -10 -202 27 -63 35
-119 108 -142 182 -7 22 -6 22 61 -8 57 -26 80 -30 148 -31z"/>
<path d="M2475 2660 c-16 -4 -22 -8 -13 -9 11 -1 15 -7 12 -15 -3 -8 15 -36
40 -65 l46 -52 0 70 c0 83 -8 90 -85 71z"/>
<path d="M5474 2656 c-3 -7 -4 -42 -2 -77 l3 -64 52 70 c29 39 53 73 53 78 0
14 -100 8 -106 -7z"/>
<path d="M1885 2625 c-5 -2 -22 -6 -37 -9 -34 -8 -37 -26 -5 -26 34 0 97 20
97 30 0 9 -33 12 -55 5z"/>
<path d="M3356 2588 c-8 -30 -8 -352 0 -372 5 -13 24 -16 104 -16 115 0 130 4
130 36 0 13 5 34 11 48 20 42 -15 147 -68 206 -34 38 -110 92 -164 118 -4 2
-9 -7 -13 -20z"/>
<path d="M4553 2508 l-113 -81 0 -108 c0 -128 -8 -121 140 -117 l95 3 3 193
c1 105 -1 192 -5 192 -5 0 -59 -37 -120 -82z"/>
<path d="M2657 2573 c-4 -3 -7 -41 -7 -84 l0 -77 53 -45 c28 -24 81 -65 117
-91 l65 -47 3 162 c2 110 -1 166 -9 175 -8 10 -39 14 -114 14 -56 0 -105 -3
-108 -7z"/>
<path d="M5152 2568 c-8 -8 -12 -59 -12 -175 l0 -164 58 39 c31 22 86 63 120
92 l63 52 -3 82 -3 81 -105 3 c-73 2 -109 -1 -118 -10z"/>
<path d="M3918 2501 c20 -17 50 -31 75 -34 37 -5 45 -3 64 21 11 15 20 28 20
28 -1 1 -45 4 -97 7 l-95 6 33 -28z"/>
<path d="M5961 2409 c-1 -4 -17 -41 -36 -83 -19 -43 -31 -75 -26 -72 14 9 72
138 67 150 -2 6 -5 8 -5 5z"/>
<path d="M4316 2327 c-21 -17 -78 -84 -126 -148 l-87 -116 121 -6 c66 -4 124
-3 129 2 4 4 6 73 5 153 l-3 146 -39 -31z"/>
<path d="M2983 2329 c-8 -8 -13 -41 -13 -83 l0 -71 118 -71 c127 -78 214 -124
195 -103 -9 9 -13 56 -13 159 0 80 -4 151 -8 158 -12 19 -263 29 -279 11z"/>
<path d="M3676 2332 c-4 -7 -9 -213 -7 -269 1 -10 29 -11 124 -7 67 4 123 8
125 9 8 7 -166 235 -193 254 -34 23 -41 25 -49 13z"/>
<path d="M4773 2333 c-10 -3 -13 -46 -13 -163 0 -152 -1 -158 -22 -174 -46
-33 43 14 185 97 l137 82 0 70 c0 42 -5 76 -12 83 -12 12 -248 17 -275 5z"/>
<path d="M2070 2302 c0 -4 20 -28 44 -53 l44 -44 -40 3 c-28 3 -39 1 -34 -7 4
-6 15 -11 24 -11 10 0 43 -9 75 -20 98 -35 104 -22 17 39 -32 23 -69 55 -80
71 -20 28 -50 41 -50 22z"/>
<path d="M5868 2214 c-6 -16 -19 -40 -28 -54 -27 -41 -52 -129 -85 -304 -16
-82 -19 -133 -5 -81 5 17 22 95 39 175 22 105 41 164 67 214 19 37 33 70 30
73 -3 3 -11 -7 -18 -23z"/>
<path d="M2409 2196 c-15 -14 -45 -30 -67 -36 -50 -13 -65 -45 -34 -70 11 -10
28 -43 37 -75 19 -65 39 -87 111 -128 27 -15 64 -36 82 -47 20 -12 68 -24 127
-32 88 -10 98 -10 157 12 64 23 124 72 95 78 -8 2 -31 -8 -51 -22 -60 -40
-101 -49 -191 -42 -82 6 -125 22 -194 72 l-34 24 29 -5 c16 -2 59 -9 96 -16
63 -10 193 -2 262 18 35 10 -4 21 -43 12 -49 -11 -51 -11 -51 6 0 8 5 15 10
15 6 0 10 6 10 13 0 17 -76 60 -91 52 -6 -4 -13 1 -15 11 -3 11 -28 34 -55 53
-44 30 -56 33 -112 32 -34 0 -86 -4 -114 -7 -30 -4 -53 -2 -53 3 0 16 83 31
144 26 42 -4 57 -3 52 6 -4 6 -19 11 -34 12 -15 0 -36 4 -47 9 -18 7 -19 8 -2
15 17 7 25 35 9 35 -4 0 -19 -11 -33 -24z m115 -113 c-10 -35 -11 -113 -1
-134 7 -13 0 -15 -50 -8 -84 10 -90 14 -111 82 -10 34 -18 63 -17 65 2 2 79
11 174 21 10 1 11 -6 5 -26z m96 -48 c20 -25 8 -50 -25 -50 -21 0 -31 5 -33
18 -4 21 14 47 33 47 7 0 18 -7 25 -15z m88 -67 c-3 -23 -48 -41 -48 -20 0 24
14 42 32 42 14 0 19 -6 16 -22z"/>
<path d="M5621 2112 c-33 -79 -55 -113 -102 -163 -61 -66 -90 -113 -88 -146 0
-12 3 -10 8 8 14 45 33 73 92 134 47 49 66 81 99 159 23 54 39 100 37 103 -3
2 -23 -41 -46 -95z"/>
<path d="M5500 2125 c0 -15 -11 -36 -26 -50 -30 -27 -50 -32 -57 -12 -3 7 -6
5 -6 -5 -1 -28 37 -22 70 11 17 17 29 40 29 55 0 14 -2 26 -5 26 -3 0 -5 -11
-5 -25z"/>
<path d="M3450 2131 l-95 -6 -3 -75 c-2 -41 -7 -77 -12 -80 -6 -3 23 -25 63
-47 l72 -42 17 34 c17 32 20 33 50 24 40 -11 48 -11 47 -1 -1 4 -1 15 0 26 1
16 3 17 19 5 15 -12 16 -12 5 2 -7 8 -15 44 -18 80 -6 58 -24 94 -44 87 -3 -1
-49 -4 -101 -7z"/>
<path d="M4447 2124 c-4 -4 -7 -47 -7 -95 l0 -87 -30 -4 c-25 -4 -33 0 -43 21
-12 25 -16 26 -127 31 -64 3 -109 9 -102 13 22 15 13 27 -21 27 -28 0 -39 -8
-67 -45 l-34 -46 -33 38 c-18 21 -32 41 -33 46 0 4 -19 7 -42 7 -40 0 -41 0
-23 -20 18 -20 17 -20 -91 -20 -72 0 -114 -4 -122 -12 -16 -16 -15 -65 1 -71
8 -3 89 -24 180 -46 l166 -41 113 29 c119 31 196 51 316 80 l73 19 17 -34 17
-34 78 45 c71 42 97 62 62 49 -11 -5 -15 9 -17 73 l-3 78 -111 3 c-60 1 -113
-1 -117 -4z"/>
<path d="M5420 1746 c0 -2 14 -46 31 -98 35 -107 34 -124 -13 -240 l-31 -76
34 -76 c19 -42 35 -71 37 -66 2 5 -8 34 -22 64 -32 68 -32 91 -1 161 48 109
48 119 12 232 -17 57 -35 103 -39 103 -5 0 -8 -2 -8 -4z"/>
<path d="M5721 1714 c-16 -33 -29 -284 -15 -284 5 0 10 57 11 126 2 73 8 132
14 140 6 7 9 21 7 30 -2 14 -6 11 -17 -12z"/>
<path d="M5716 1352 c5 -62 20 -119 30 -110 4 5 -1 31 -26 133 -8 36 -9 33 -4
-23z"/>
<path d="M5750 1220 c0 -9 6 -25 14 -36 13 -19 20 -45 17 -71 0 -8 -14 -13
-32 -13 -39 0 -89 48 -89 84 0 41 -18 30 -25 -16 -7 -41 -8 -41 -21 -17 -7 13
-13 34 -14 47 0 12 -4 22 -10 22 -5 0 -10 -18 -10 -41 0 -24 -4 -38 -10 -34
-5 3 -10 22 -10 41 0 46 -20 44 -22 -3 l-1 -38 -4 33 c-5 40 -29 38 -26 -2 2
-21 -2 -26 -13 -22 -10 4 -14 1 -11 -6 2 -7 20 -13 39 -13 20 0 40 -3 44 -7 4
-4 14 -3 21 4 11 9 17 9 23 -3 7 -11 14 -11 27 -3 13 8 25 5 52 -13 24 -17 46
-23 71 -21 33 3 35 5 34 38 -1 34 -44 121 -44 90z"/>
</g>
</svg>
